<svg width="200" viewBox="0 0 1455 310" fill="none" xmlns="http://www.w3.org/2000/svg">
<path d="M675.383 74.6416L636.113 145.159H653.183L693.328 74.6416H675.383Z" fill="black"/>
<path d="M596.843 74.6416H578.896L627.456 159.938V210.608H644.768V161.426L636.112 145.159L596.843 74.6416Z" fill="black"/>
<path d="M807.55 184.006L730.066 74.6416H714.443V210.608H731.755V101.455L809.028 210.608H824.863V74.6416H807.55V184.006Z" fill="black"/>
<path d="M1000.94 74.6416H983.633V210.608H1073.36V197.096H1000.94V74.6416Z" fill="black"/>
<path d="M1335.57 150.331C1331.55 145.471 1326.1 142.201 1319.2 140.511C1324.55 137.981 1328.74 134.221 1331.76 129.221C1334.79 124.221 1336.3 117.991 1336.3 110.531C1336.3 99.1306 1333.17 90.3006 1326.91 84.0406C1320.64 77.7706 1310.83 74.6406 1297.46 74.6406H1234.54V210.611H1300.83C1314.21 210.611 1324.34 207.441 1331.24 201.111C1338.13 194.771 1341.58 184.991 1341.58 171.761C1341.58 162.331 1339.58 155.191 1335.57 150.331ZM1251.85 87.9407H1293.23C1303.79 87.9407 1310.9 89.9507 1314.56 93.9607C1318.22 97.9707 1320.05 103.921 1320.05 111.801C1320.05 118.421 1318.25 123.801 1314.66 127.951C1311.07 132.101 1304.99 134.181 1296.4 134.181H1251.85V87.9407ZM1317.94 191.501C1313.71 195.511 1307.03 197.521 1297.88 197.521H1251.85V147.271H1295.13C1306.25 147.271 1313.89 149.271 1318.04 153.291C1322.19 157.301 1324.27 163.251 1324.27 171.131C1324.27 180.701 1322.16 187.491 1317.94 191.501Z" fill="black"/>
<path d="M1450.95 157.825C1448.41 152.758 1444.05 148.361 1437.86 144.63C1431.66 140.902 1423.01 137.699 1411.89 135.024C1402.6 132.774 1395.35 130.626 1390.14 128.585C1384.93 126.546 1381.24 124.082 1379.06 121.195C1376.87 118.311 1375.79 114.544 1375.79 109.9C1375.79 101.597 1378.88 95.7542 1385.08 92.3762C1391.27 88.9982 1400.13 87.3093 1411.68 87.3093C1418.01 87.3093 1424.13 87.8042 1430.05 88.7872C1435.96 89.7732 1441.45 91.1823 1446.51 93.0093V77.8082C1442.85 76.5412 1437.65 75.3472 1430.89 74.2192C1424.13 73.0942 1416.81 72.5303 1408.93 72.5303C1391.9 72.5303 1379.23 75.8753 1370.93 82.5593C1362.62 89.2463 1358.47 98.3613 1358.47 109.9C1358.47 119.754 1361.5 127.602 1367.55 133.441C1373.6 139.283 1384.09 144.033 1399.01 147.692C1408.44 149.945 1415.97 152.162 1421.6 154.342C1427.23 156.526 1431.28 159.198 1433.74 162.365C1436.2 165.532 1437.43 169.791 1437.43 175.138C1437.43 183.725 1434.41 189.672 1428.36 192.978C1422.3 196.287 1413.22 197.94 1401.12 197.94C1394.08 197.94 1387.22 197.343 1380.54 196.146C1373.85 194.952 1367.55 193.226 1361.64 190.973V206.386C1372.06 210.608 1385.71 212.72 1402.6 212.72C1419.91 212.72 1432.93 209.447 1441.66 202.902C1450.38 196.357 1454.75 187.103 1454.75 175.139C1454.75 168.665 1453.48 162.893 1450.95 157.825Z" fill="black"/>
<path d="M961.888 74.6416H942.042L904.25 130.168L923.431 130.267L961.888 74.6416Z" fill="black"/>
<path d="M923.538 155.656L904.249 130.168L866.456 74.6416H846.611L893.903 143.047L845.977 210.608H866.035L904.249 156.348L942.463 210.608H962.52L923.538 155.656Z" fill="black"/>
<path d="M565.172 74.6416H547.226L503.311 193.085H520.297L565.172 74.6416Z" fill="black"/>
<path d="M459.608 74.6416H441.662L493.388 210.608H510.24L503.311 193.085L459.608 74.6416Z" fill="black"/>
<path d="M1212.76 210.607H1194.81L1150.9 92.1641H1167.88L1212.76 210.607Z" fill="black"/>
<path d="M1107.2 210.608H1089.25L1140.98 74.6416H1157.83L1150.9 92.1647L1107.2 210.608Z" fill="black"/>
<path d="M371.099 0.449707L299.349 0.139648L259.289 49.8097L224.989 0.199707L120.029 0.489624L210.409 134.21L258.359 74.7496L274.689 98.3696L226.749 159.06L270.659 226.65L328.299 149.65L293.259 98.9697L371.099 0.449707ZM211.469 109.1L148.099 15.3496L217.179 15.1597L249.509 61.9397L211.469 109.1ZM268.139 62.6196L306.459 15.1096L340.359 15.2496L284.379 86.1096L268.139 62.6196ZM309.899 149.3L271.519 200.57L245.109 159.91L283.579 111.23L309.899 149.3Z" fill="black"/>
<path d="M93.55 0.129883H0L205.07 309.83L254.08 247.84L93.55 0.129883ZM27.8101 15.0699H85.4299L235.72 246.98L206.14 284.39L27.8101 15.0699Z" fill="black"/>
</svg>
